<svg xmlns="http://www.w3.org/2000/svg" xmlns:xlink="http://www.w3.org/1999/xlink" width="298.667" height="298.667" viewBox="0 0 298.667 298.667"><defs><style>.a{fill:#3a393e;font-size:29px;font-family:SegoeUIBlack, Segoe UI;}.b{clip-path:url(#a);}.c{fill:#ff6d33;}.d{fill:#4c4c4c;font-size:11px;font-family:SegoeUI-Light, Segoe UI;font-weight:300;}</style><clipPath id="a"><path d="M0-666.665H298.667V-368H0Z" transform="translate(0 666.665)"/></clipPath></defs><g transform="translate(0 666.665)"><text class="a" transform="translate(100.698 -518.073)"><tspan x="0" y="0">COVID-19</tspan></text><g transform="translate(0 -666.665)"><g class="b"><g transform="translate(49.483 109.61)"><path class="c" d="M-50.324-75.52a3.879,3.879,0,0,1-3.736-4,3.881,3.881,0,0,1,4.01-3.736,3.868,3.868,0,0,1,3.728,4,3.875,3.875,0,0,1-4,3.736m-5.709-18.946a2.508,2.508,0,0,1,2.587-2.418,2.511,2.511,0,0,1,2.418,2.6,2.5,2.5,0,0,1-2.6,2.41,2.5,2.5,0,0,1-2.41-2.588m-1.512-19.124a3.153,3.153,0,0,1,3.266-3.04,3.151,3.151,0,0,1,3.049,3.266,3.154,3.154,0,0,1-3.267,3.04,3.161,3.161,0,0,1-3.048-3.267m-6.785,16.544a6.81,6.81,0,0,1-6.558-7.043,6.8,6.8,0,0,1,7.043-6.558,6.8,6.8,0,0,1,6.558,7.035,6.806,6.806,0,0,1-7.043,6.566m1.528,15.42a5.282,5.282,0,0,1-5.086-5.466,5.272,5.272,0,0,1,5.458-5.094,5.277,5.277,0,0,1,5.086,5.466A5.278,5.278,0,0,1-62.8-81.625M-34.7-65.8a3.748,3.748,0,0,0-.55-1.019,6.1,6.1,0,0,0-.8-.849c-.146-.129-.291-.235-.444-.348a4.165,4.165,0,0,0-.421-.267c-.267-.161-.534-.315-.8-.469-.016-.008-.032-.024-.049-.024-.25-.161-.5-.348-.744-.533a3.3,3.3,0,0,1-.355-.307,3.957,3.957,0,0,1-.3-.348,4.094,4.094,0,0,1-.372-.59h-.008c-.048-.09-.105-.178-.145-.268a14.434,14.434,0,0,0,2.733-1.035,10.431,10.431,0,0,0,1-.6,6.51,6.51,0,0,0,.6-.444,1.646,1.646,0,0,0,.315-.316,1.264,1.264,0,0,0,.154-.25,1.362,1.362,0,0,0,.073-.364,1.053,1.053,0,0,0-.21-.6,2.617,2.617,0,0,0-.615-.5c-.21-.13-.437-.259-.655-.388-.243-.145-.477-.3-.72-.453-.105-.065-.219-.137-.332-.21a.175.175,0,0,0-.065-.05,3.734,3.734,0,0,0-.307-.218A28.168,28.168,0,0,1-40.3-78.261a24.9,24.9,0,0,1-1.885-1.925c-.315-.364-.622-.736-.913-1.124-.275-.372-.55-.752-.8-1.149-.235-.364-.469-.736-.679-1.108-.2-.355-.388-.728-.574-1.1-.195-.4-.388-.833-.559-1.253-.17-.4-.315-.809-.453-1.213a32.455,32.455,0,0,1-.978-3.647,40.093,40.093,0,0,1-.622-5.006,31.516,31.516,0,0,1,.024-4.1,48.2,48.2,0,0,1,.817-5.976c.121-.573.267-1.148.421-1.714s.339-1.124.533-1.682a25.836,25.836,0,0,1,1.278-2.951,19.155,19.155,0,0,1,1.294-2.24,17.662,17.662,0,0,1,1.229-1.585,13.424,13.424,0,0,1,1.148-1.107,11.153,11.153,0,0,1,1.116-.841,10.885,10.885,0,0,1,1.075-.639c.251-.138.51-.259.76-.4a1.645,1.645,0,0,0,.477-.372.846.846,0,0,0,.194-.566.883.883,0,0,0-.259-.615,1.345,1.345,0,0,0-.51-.324,5.3,5.3,0,0,0-.542-.194c-.219-.065-.437-.13-.663-.178a19.521,19.521,0,0,0-2.612-.72A27.22,27.22,0,0,0-45-122.443l-.072-.388c-.032-.162-.048-.324-.073-.493-.024-.21-.065-.412-.089-.631-.065-.421-.113-.849-.146-1.278a6.587,6.587,0,0,1,0-.687,4.069,4.069,0,0,1,.065-.453c.04-.186.089-.364.145-.542a4.932,4.932,0,0,1,.2-.469c.073-.129.145-.266.218-.4.186-.331.381-.655.534-.995a3.8,3.8,0,0,0,.348-1.189,2.148,2.148,0,0,0-.016-.679,3.767,3.767,0,0,0-.178-.655,2.516,2.516,0,0,0-.922-1.108,2.927,2.927,0,0,0-.639-.356,2.707,2.707,0,0,0-.364-.113,2.426,2.426,0,0,0-.421-.057,2,2,0,0,0-1.269.291,2.477,2.477,0,0,0-1.14,1.747,3.075,3.075,0,0,0,.21,1.5c.073.17.162.34.251.5.065.113.137.219.2.34a1.268,1.268,0,0,1,.057.161,2.587,2.587,0,0,1,.113.413,7.419,7.419,0,0,1,.1.744,8.949,8.949,0,0,1-.008.938v.017a9.534,9.534,0,0,1-.161,1.067,8.079,8.079,0,0,1-.315,1.124c-.008.008-.008.016-.016.032a3.8,3.8,0,0,1-.235.566c-.081.145-.162.291-.259.437-.073.105-.162.194-.243.3-.065.089-.137.178-.194.275a24.416,24.416,0,0,0-2.773.3c-.461.065-.922.145-1.383.234-.137-.17-.267-.339-.4-.517-.162-.226-.324-.453-.477-.688a11.567,11.567,0,0,1-.6-1.027,7.077,7.077,0,0,1-.308-.76,8,8,0,0,1-.283-1.067,10.466,10.466,0,0,1-.162-1.342,7.4,7.4,0,0,1,.008-1.035,7.97,7.97,0,0,1,.121-.873,1.567,1.567,0,0,1,.057-.21,2.179,2.179,0,0,1,.145-.34c.113-.218.226-.453.324-.687a4.783,4.783,0,0,0,.339-1.908,4.229,4.229,0,0,0-.129-.906,4.653,4.653,0,0,0-.4-.954,5.581,5.581,0,0,0-.606-.9,4.73,4.73,0,0,0-.906-.889,3.7,3.7,0,0,0-1.407-.663,3.779,3.779,0,0,0-.429-.081c-.145-.008-.283-.016-.421-.016a4.327,4.327,0,0,0-.728.056,3.537,3.537,0,0,0-.72.21,3.986,3.986,0,0,0-.631.356,3.2,3.2,0,0,0-.51.477,4.638,4.638,0,0,0-.364.518,3.436,3.436,0,0,0-.291.72,3.874,3.874,0,0,0-.137.606c-.032.178-.048.356-.065.533a5.751,5.751,0,0,0-.017.752,4.243,4.243,0,0,0,.283,1.342,4.888,4.888,0,0,0,.243.51,3.515,3.515,0,0,0,.283.429,3.8,3.8,0,0,0,.679.663c.219.154.437.3.655.444a6.014,6.014,0,0,1,.566.445,6.1,6.1,0,0,1,.453.469c.089.113.17.21.251.323s.146.243.2.356a5.847,5.847,0,0,1,.226.582A9.606,9.606,0,0,1-58.337-126a7.8,7.8,0,0,1,.129,1.14,13.959,13.959,0,0,1,.008,1.843,8.275,8.275,0,0,1-.121.9,3.034,3.034,0,0,1-.137.485,5.444,5.444,0,0,1-.251.6c-.081.145-.17.291-.259.437,0,0-.008,0-.008.008s-.008,0-.008.008-.008.008-.008.008c-.072.1-.137.194-.21.283-.016.024-.032.041-.048.065a26.733,26.733,0,0,0-2.466,1.059c-.234.105-.461.218-.671.332-.194-.121-.388-.251-.574-.38-.008,0-.008,0-.017-.008a.024.024,0,0,1-.016-.008l-.016-.017h-.008v-.008h-.008a6,6,0,0,1-.566-.461,4.592,4.592,0,0,1-.4-.388,3,3,0,0,1-.259-.364,3.686,3.686,0,0,1-.243-.429,9.846,9.846,0,0,1-.4-.946c-.065-.234-.129-.477-.186-.711a6.012,6.012,0,0,1-.113-.849c-.016-.25-.016-.493-.024-.735a7.155,7.155,0,0,0-.081-.922,3.586,3.586,0,0,0-.106-.477,4.581,4.581,0,0,0-.21-.517,2.422,2.422,0,0,0-.275-.429,3.36,3.36,0,0,0-.4-.421,2.6,2.6,0,0,0-.445-.332,3.208,3.208,0,0,0-.461-.235,3.721,3.721,0,0,0-.526-.177,2.879,2.879,0,0,0-.6-.073,2.518,2.518,0,0,0-1.092.17,2.461,2.461,0,0,0-.776.5,1.679,1.679,0,0,0-.324.388,2.915,2.915,0,0,0-.2.453,3.079,3.079,0,0,0-.2,1.14,3.557,3.557,0,0,0,.251,1.2,3.582,3.582,0,0,0,1.108,1.5c.421.348.9.623,1.35.93a5.963,5.963,0,0,1,.664.526,4.765,4.765,0,0,1,.4.4c.194.235.372.493.55.752a2.3,2.3,0,0,1,.17.307,3.874,3.874,0,0,1,.251.6c.048.154.089.3.121.453a.015.015,0,0,1,0,.024c0,.008,0,.016.008.016.032.17.048.332.065.493.008.251.016.5,0,.752-.024.177-.041.348-.073.517v.025a24.16,24.16,0,0,0-2.005,1.633c-.186.024-.38.048-.566.065.008,0,.008,0,.008-.008-.17.008-.348.024-.517.032h-.024a.03.03,0,0,1-.024.008H-69.2a10.955,10.955,0,0,1-1.156-.017c-.348-.032-.7-.089-1.043-.154a8.665,8.665,0,0,1-1.148-.323,14.276,14.276,0,0,1-1.5-.655,6.531,6.531,0,0,1-.655-.38,10.131,10.131,0,0,1-.849-.688c-.323-.307-.63-.614-.922-.946-.129-.154-.243-.315-.364-.469s-.226-.308-.339-.47a5.056,5.056,0,0,1-.324-.55c-.089-.194-.17-.4-.251-.6s-.17-.412-.25-.622a4.566,4.566,0,0,0-.809-1.447,3.34,3.34,0,0,0-2.086-1.076,3.837,3.837,0,0,0-.68-.024c-.1.008-.194.024-.3.04a1.966,1.966,0,0,0-.308.065,3.208,3.208,0,0,0-1.116.615,2.288,2.288,0,0,0-.445.477,2.114,2.114,0,0,0-.307.493,3.332,3.332,0,0,0-.234,1.124,3.854,3.854,0,0,0,.1,1.052,3.136,3.136,0,0,0,.477.994A4.463,4.463,0,0,0-82-116.993a5.338,5.338,0,0,0,.841.332c.283.081.582.129.866.186a9.581,9.581,0,0,1,1.051.283,9.848,9.848,0,0,1,1.084.461.024.024,0,0,0,.016.008v.008h.008c.008,0,.008.008.024.008,0,.008.008.008.016.016h.008a13.776,13.776,0,0,1,1.2.7,10.809,10.809,0,0,1,.882.7,14.07,14.07,0,0,1,1.147,1.165,7.963,7.963,0,0,1,.664.9,10.555,10.555,0,0,1,.679,1.173,6.984,6.984,0,0,1,.34.809,7.845,7.845,0,0,1,.259.954c.033.178.065.348.081.526-.033.073-.073.145-.113.218-.024.057-.057.113-.081.162-.121.234-.235.469-.348.7-.154.339-.308.671-.445,1.011-.081.024-.17.048-.266.073a2.577,2.577,0,0,1-.364.048c-.138.008-.283,0-.421,0a3.681,3.681,0,0,1-.4-.048c-.2-.041-.4-.1-.582-.154a4.7,4.7,0,0,1-.461-.178,7.454,7.454,0,0,1-.736-.421c-.008-.008-.008-.008-.016-.008-.219-.146-.412-.3-.615-.461-.218-.194-.428-.388-.647-.582a9.915,9.915,0,0,0-.857-.687,6.754,6.754,0,0,0-.874-.526,3.667,3.667,0,0,0-1.018-.323,2.975,2.975,0,0,0-1.035.024,3.037,3.037,0,0,0-.93.364,3.309,3.309,0,0,0-.873.736,2.2,2.2,0,0,0-.485,1.2,1.94,1.94,0,0,0,.024.647,1.4,1.4,0,0,0,.1.372,1.47,1.47,0,0,0,.137.3,2.615,2.615,0,0,0,.76.873,4.982,4.982,0,0,0,.914.493,3.1,3.1,0,0,0,1.067.21,5.227,5.227,0,0,0,1.181-.13c.323-.073.639-.161.962-.235a5.458,5.458,0,0,1,.63-.088,5.558,5.558,0,0,1,.631-.008,4.755,4.755,0,0,1,.59.065,8.4,8.4,0,0,1,.841.2,2.924,2.924,0,0,1,.4.154,3.9,3.9,0,0,1,.4.235,2.986,2.986,0,0,1,.308.226,3.016,3.016,0,0,1,.283.283c.088.113.17.218.25.331a.338.338,0,0,1,.049.089,18.032,18.032,0,0,0-.47,2.442c-.113.817-.17,1.633-.21,2.45l-.056.048a7.254,7.254,0,0,1-.639.477,3.289,3.289,0,0,1-.469.267,5.021,5.021,0,0,1-.679.283,7.071,7.071,0,0,1-.841.235c-.267.049-.542.089-.817.113a9.623,9.623,0,0,1-1.189.008A9.3,9.3,0,0,1-81.39-97.4a6.885,6.885,0,0,1-.97-.234c-.332-.122-.663-.243-.987-.388-.008-.008-.016-.008-.024-.016h-.008a.121.121,0,0,0-.057-.032.408.408,0,0,1-.081-.041h-.008c-.008-.008-.016-.008-.024-.016s-.024-.008-.032-.008-.008-.008-.016-.008a.79.79,0,0,0-.081-.041c0-.008-.008-.008-.016-.008a.025.025,0,0,0-.016-.008h-.008a.032.032,0,0,0-.024-.008,8.8,8.8,0,0,0-2.288-.946,4.727,4.727,0,0,0-2.862.453,4.664,4.664,0,0,0-1.148.752,3.521,3.521,0,0,0-.809,1.075,3.207,3.207,0,0,0-.315,1.334,3.411,3.411,0,0,0,.372,1.456,3.819,3.819,0,0,0,2.288,1.868,4.667,4.667,0,0,0,1.156.2h.234a6.689,6.689,0,0,0,.679-.057,6.743,6.743,0,0,0,.7-.17,6.813,6.813,0,0,0,1.035-.5c.267-.154.533-.315.8-.477.526-.315,1.044-.655,1.593-.929a9.5,9.5,0,0,1,.938-.388c.2-.065.42-.121.63-.178.226-.04.453-.073.688-.1.4-.024.817-.024,1.221-.008h.016c.421.032.849.073,1.262.146.226.048.444.1.663.162a4.845,4.845,0,0,1,.469.186,3.728,3.728,0,0,1,.469.259c.105.065.21.113.315.17.089.041.17.065.259.105.008,0,.024.008.033.008a27.607,27.607,0,0,0,.913,4.148,2.026,2.026,0,0,1-.129.226c-.057.081-.13.17-.195.251a1.937,1.937,0,0,1-.177.186,2,2,0,0,1-.219.17,1.379,1.379,0,0,1-.234.13c-.065.032-.13.065-.194.088-.138.041-.267.073-.4.105a1.6,1.6,0,0,1-.275.032,2.506,2.506,0,0,1-.251.008,7.774,7.774,0,0,1-.776-.1c-.275-.032-.533-.072-.8-.088a4.583,4.583,0,0,0-.882.008,3.755,3.755,0,0,0-.833.226,3.23,3.23,0,0,0-.825.477,2.446,2.446,0,0,0-.688.809,2.435,2.435,0,0,0-.194.574,1.769,1.769,0,0,0-.024.412,2.855,2.855,0,0,0,.218.922,2.562,2.562,0,0,0,.2.381,3.517,3.517,0,0,0,.3.4,3.126,3.126,0,0,0,.412.388,2.456,2.456,0,0,0,.486.291,2.156,2.156,0,0,0,.857.211h.113a2.475,2.475,0,0,0,1.043-.251,4.507,4.507,0,0,0,.817-.493,3.887,3.887,0,0,0,.509-.444q.207-.23.388-.461c.121-.154.226-.307.348-.453a1.489,1.489,0,0,1,.154-.154.5.5,0,0,1,.13-.1,1.1,1.1,0,0,1,.121-.081c.073-.032.154-.065.226-.089s.113-.032.178-.048a2.427,2.427,0,0,1,.259-.032,1.955,1.955,0,0,1,.307-.008c.154.016.3.033.445.057a1.748,1.748,0,0,1,.267.081.623.623,0,0,1,.17.057c.072.04.146.081.226.121.145.113.283.235.437.34.024.008.041.016.065.024.21.452.445.9.7,1.334a20.435,20.435,0,0,0,1.819,2.668v.049a1.823,1.823,0,0,1-.024.2c-.017.113-.041.226-.065.339-.065.178-.129.364-.21.542-.065.121-.13.251-.2.364l-.008.008a4.083,4.083,0,0,1-.4.526,5.636,5.636,0,0,1-.485.5,7.966,7.966,0,0,1-.768.622c-.243.162-.486.3-.736.437-.2.1-.4.186-.615.266-.332.113-.671.21-1.011.291-.38.09-.76.154-1.14.219-.356.048-.72.089-1.076.137a5.513,5.513,0,0,0-1.342.381,6.9,6.9,0,0,0-1.269.76,4.123,4.123,0,0,0-1.084,1.164,3.645,3.645,0,0,0-.324.728,3.218,3.218,0,0,0-.145.784,3.23,3.23,0,0,0,.016.679,3.443,3.443,0,0,0,.146.631,3.939,3.939,0,0,0,.72,1.294,4.574,4.574,0,0,0,1.2,1.018,3.6,3.6,0,0,0,.606.308,3.235,3.235,0,0,0,.825.2c.146.017.292.033.428.041a4.407,4.407,0,0,0,.979-.081,3.6,3.6,0,0,0,1.3-.5,4.749,4.749,0,0,0,.986-.817,5.021,5.021,0,0,0,.76-1.107,10.271,10.271,0,0,0,.453-1.06c.137-.4.235-.833.356-1.245a4.254,4.254,0,0,1,.2-.542,6.245,6.245,0,0,1,.332-.606,6.765,6.765,0,0,1,.574-.793,9.889,9.889,0,0,1,.946-.986,8.813,8.813,0,0,1,.857-.688,5.247,5.247,0,0,1,.485-.3c.137-.065.275-.129.4-.177a2.044,2.044,0,0,1,.323-.105,2.123,2.123,0,0,0,.219-.033,1.762,1.762,0,0,1,.21,0,3.908,3.908,0,0,1,.526.048c.008.008.008.008.024.008.13.016.251.041.38.049a1.273,1.273,0,0,0,.178-.017c.493.421.995.817,1.512,1.2.412.315.833.615,1.261.914l-.008.089c0,.088-.008.17-.016.259a3.007,3.007,0,0,1-.1.364,2.309,2.309,0,0,1-.081.219,3.966,3.966,0,0,1-.25.485,3.949,3.949,0,0,1-.381.5,3.972,3.972,0,0,1-.315.332c-.073.065-.154.121-.235.186a1.409,1.409,0,0,1-.218.129c-.2.105-.421.2-.622.3s-.429.17-.631.275a3.7,3.7,0,0,0-1.447,1.238,2.375,2.375,0,0,0-.307,1.536,2.633,2.633,0,0,0,.614,1.3,3.524,3.524,0,0,0,.574.525,3.251,3.251,0,0,0,.736.4,3.353,3.353,0,0,0,1.051.235,2.2,2.2,0,0,0,.558-.048,2.922,2.922,0,0,0,.768-.283,2.537,2.537,0,0,0,.566-.4,2.691,2.691,0,0,0,.388-.477,3.9,3.9,0,0,0,.34-.622,5.477,5.477,0,0,0,.291-1.285c.057-.4.105-.793.17-1.181a6.939,6.939,0,0,1,.154-.7c.032-.1.073-.2.113-.3a2.22,2.22,0,0,1,.154-.267,1.042,1.042,0,0,1,.106-.154,1.4,1.4,0,0,1,.186-.194,1.872,1.872,0,0,1,.162-.13,1.453,1.453,0,0,1,.145-.088c.13-.065.267-.113.4-.17a.707.707,0,0,0,.17-.138c.413.243.833.469,1.253.7a28.075,28.075,0,0,0,2.588,1.14.706.706,0,0,1,.048.178c.033.162.057.323.073.485a2.438,2.438,0,0,1,.008.412,5.013,5.013,0,0,1-.057.5c-.048.226-.113.436-.178.655-.121.348-.259.7-.412,1.035a9.69,9.69,0,0,1-.582,1,6.834,6.834,0,0,1-.622.817,8.5,8.5,0,0,1-.7.728c-.243.21-.493.412-.744.615-.315.259-.631.51-.922.784a5.9,5.9,0,0,0-1.448,1.884,4.878,4.878,0,0,0-.38,1.351,4.567,4.567,0,0,0-.008,1.326,3.323,3.323,0,0,0,.461,1.269,3.178,3.178,0,0,0,.4.542,2.724,2.724,0,0,0,.469.412,3.309,3.309,0,0,0,1.164.566,3.5,3.5,0,0,0,.582.089h.056a4.253,4.253,0,0,0,.639-.041,3.309,3.309,0,0,0,1.164-.388,3.605,3.605,0,0,0,.922-.712c.13-.129.243-.267.364-.412a3.042,3.042,0,0,0,.428-.623,4.081,4.081,0,0,0,.4-1.2,7.008,7.008,0,0,0,.073-1.164,11.5,11.5,0,0,0-.065-1.181c-.041-.331-.089-.663-.137-.995-.065-.364-.13-.72-.17-1.091a7.714,7.714,0,0,1-.017-.866,9.639,9.639,0,0,1,.13-1.075,7.557,7.557,0,0,1,.259-1.043,8.053,8.053,0,0,1,.429-1.076,8.881,8.881,0,0,1,.453-.808,10.614,10.614,0,0,1,.7-.9c.041-.041.081-.089.122-.137.153.041.315.089.485.129a31.735,31.735,0,0,0,3.485.712c.105.016.21.032.308.041a3.545,3.545,0,0,1-.049.4,1.6,1.6,0,0,1-.065.218,2.522,2.522,0,0,1-.178.469,5.012,5.012,0,0,1-.291.5c-.21.324-.461.615-.7.922-.122.17-.251.34-.364.517a3.106,3.106,0,0,0-.283.51,3.7,3.7,0,0,0-.34,1.245c-.008.186-.016.372-.008.566a3.631,3.631,0,0,0,.113.582,3.189,3.189,0,0,0,.5,1.043,1.956,1.956,0,0,0,1.011.736,1.66,1.66,0,0,0,.485.089c.041,0,.072-.008.113-.008a2.476,2.476,0,0,0,.55-.048A3.066,3.066,0,0,0-47.7-63.617a2.576,2.576,0,0,0,.315-.558,3.664,3.664,0,0,0,.186-.5,2.762,2.762,0,0,0,.081-.517c.008-.088.017-.186.017-.283a1.761,1.761,0,0,0-.017-.21,17.231,17.231,0,0,0-.526-2.378c-.032-.194-.065-.388-.088-.582a1.683,1.683,0,0,1-.008-.283,4.438,4.438,0,0,1,.041-.461,3.693,3.693,0,0,0,.056-.51l.008-.089V-70c.1,0,.186.008.291.016.259.008.518.008.777.008.615,0,1.221-.016,1.827-.057.485-.024.97-.081,1.456-.129.421-.048.833-.105,1.245-.17.081.089.17.162.251.243.1.113.186.226.275.339s.17.235.235.356c.073.137.145.283.2.421a3.642,3.642,0,0,1,.146.484,2.913,2.913,0,0,1,.073.364,5.622,5.622,0,0,1,.032.639,6.453,6.453,0,0,1-.048.687c-.073.453-.186.915-.235,1.375a3.621,3.621,0,0,0,0,.664,4.5,4.5,0,0,0,.13.735,4.5,4.5,0,0,0,.444.986,2.53,2.53,0,0,0,.364.47,4.317,4.317,0,0,0,.437.421,3.343,3.343,0,0,0,1.181.6,2.318,2.318,0,0,0,.615.121l.121.008c.121,0,.259,0,.38-.008a2.585,2.585,0,0,0,.55-.1,2.5,2.5,0,0,0,.558-.267,4.18,4.18,0,0,0,.777-.7,3.99,3.99,0,0,0,.7-1.019,3.989,3.989,0,0,0,.226-.614,3.71,3.71,0,0,0,.1-.6A2.9,2.9,0,0,0-34.7-65.8" transform="translate(91.166 136.812)"/></g></g></g><text class="d" transform="translate(103.762 -501.538)"><tspan x="0" y="0">CORONAVIRUS</tspan></text></g></svg>